HIERARCHY
ROOT hip
{
	OFFSET 0.000000 0.000000 0.000000 
	CHANNELS 6 Xposition Yposition Zposition Xrotation Zrotation Yrotation
	JOINT abdomen
	{
		OFFSET 0.000000 3.402643 0.000000 
		CHANNELS 3 Xrotation Zrotation Yrotation
		JOINT chest
		{
			OFFSET 0.000000 8.438565 -0.680529 
			CHANNELS 3 Xrotation Zrotation Yrotation
			JOINT neck
			{
				OFFSET 0.000000 10.207942 -0.272212 
				CHANNELS 3 Xrotation Zrotation Yrotation
				JOINT head
				{
					OFFSET 0.000000 3.130431 0.000000 
					CHANNELS 3 Xrotation Zrotation Yrotation
					End Site
					{
						OFFSET 0.000000 3.130435 0.000000 
					}
				}
			}
			JOINT lCollar
			{
				OFFSET 3.470700 6.669187 -0.816635 
				CHANNELS 3 Yrotation Zrotation Xrotation
				JOINT lShldr
				{
					OFFSET 3.198488 0.000000 0.000000 
					CHANNELS 3 Zrotation Yrotation Xrotation
					JOINT lForeArm
					{
						OFFSET 10.139888 0.000000 0.000000 
						CHANNELS 3 Yrotation Zrotation Xrotation
						JOINT lHand
						{
							OFFSET 8.370511 0.000000 0.000000 
							CHANNELS 3 Zrotation Yrotation Xrotation
							End Site
							{
								OFFSET 4.083176 0.000000 0.000000 
							}
						}
					}
				}
			}
			JOINT rCollar
			{
				OFFSET -3.470700 6.669187 -0.816635 
				CHANNELS 3 Yrotation Zrotation Xrotation
				JOINT rShldr
				{
					OFFSET -3.198488 0.000000 0.000000 
					CHANNELS 3 Zrotation Yrotation Xrotation
					JOINT rForeArm
					{
						OFFSET -10.139888 0.000000 0.000000 
						CHANNELS 3 Yrotation Zrotation Xrotation
						JOINT rHand
						{
							OFFSET -8.370511 0.000000 0.000000 
							CHANNELS 3 Zrotation Yrotation Xrotation
							End Site
							{
								OFFSET -4.083176 0.000000 0.000000 
							}
						}
					}
				}
			}
		}
	}
	JOINT lThigh
	{
		OFFSET 5.308129 -1.633274 1.361059 
		CHANNELS 3 Xrotation Zrotation Yrotation
		JOINT lShin
		{
			OFFSET -2.041588 -20.007561 0.000000 
			CHANNELS 3 Xrotation Zrotation Yrotation
			JOINT lFoot
			{
				OFFSET 0.000000 -19.190928 -1.224953 
				CHANNELS 3 Xrotation Yrotation Zrotation
				End Site
				{
					OFFSET 0.000000 -2.449906 4.627600 
				}
			}
		}
	}
	JOINT rThigh
	{
		OFFSET -5.308129 -1.633274 1.361059 
		CHANNELS 3 Xrotation Zrotation Yrotation
		JOINT rShin
		{
			OFFSET 2.041588 -20.007561 0.000000 
			CHANNELS 3 Xrotation Zrotation Yrotation
			JOINT rFoot
			{
				OFFSET 0.000000 -19.190928 -1.224953 
				CHANNELS 3 Xrotation Yrotation Zrotation
				End Site
				{
					OFFSET 0.000000 -2.449906 4.627600 
				}
			}
		}
	}
}
MOTION
Frames: 8
Frame Time: 0.016667
-0.006623 48.800137 -3.252593 -1.330774 15.108888 11.243748 5.878796 -14.955568 4.983646 0.000000 0.000000 0.000000 -42.245579 2.299259 55.575432 0.000000 0.000000 0.000000 0.000000 0.000000 0.000000 -63.836941 -49.772663 93.018692 -91.291092 27.072746 5.593519 -20.142349 -18.667505 -37.455551 0.000000 0.000000 0.000000 70.022705 25.057945 71.081482 91.604958 2.776801 33.452545 -65.816040 31.461357 10.223449 -2.535866 6.166750 -13.372007 1.437885 -10.767916 9.029298 -1.925010 -14.484480 -9.495377 -12.840541 -25.446272 -3.467617 31.006712 -2.621764 -1.156052 -13.908716 -1.358293 10.727346 
-0.146578 48.710560 -3.269387 -0.883693 14.411641 10.541560 5.617380 -13.899415 5.219831 0.000000 0.000000 0.000000 -40.272171 0.863312 51.502445 0.000000 0.000000 0.000000 0.000000 0.000000 0.000000 -63.581760 -47.047302 92.284821 -85.715286 26.331421 3.589497 -19.211468 -17.046228 -36.710255 0.000000 0.000000 0.000000 70.100021 23.542505 71.415726 86.400688 0.235938 31.461351 -61.726189 29.755859 7.339410 -2.797549 5.539310 -11.967416 1.769350 -10.125246 8.118857 -1.702143 -13.567761 -9.166256 -13.004891 -23.694735 -3.156736 29.967247 -2.480209 -1.575894 -13.567945 -1.162384 9.618499 
-0.185766 48.643379 -3.191009 -0.282048 13.252979 9.425054 5.339975 -12.061131 5.692087 0.000000 0.000000 0.000000 -36.451084 -1.494608 44.354843 0.000000 0.000000 0.000000 0.000000 0.000000 0.000000 -63.545498 -42.281834 91.605385 -76.060974 24.685619 0.332079 -17.538977 -14.391130 -35.432034 0.000000 0.000000 0.000000 69.985237 20.680529 71.556725 77.168861 -3.535109 27.687275 -54.606056 27.238884 1.954132 -3.192107 4.549555 -9.682158 2.471566 -9.068616 6.204821 -1.452478 -11.524472 -8.307761 -13.103712 -21.061184 -3.005945 28.654692 -2.567958 -1.795476 -13.183921 -0.728393 7.672237 
-0.224952 48.576202 -3.112636 0.345191 12.112226 8.292637 5.089213 -10.205990 6.140983 0.000000 0.000000 0.000000 -32.353802 -3.352901 37.066219 0.000000 0.000000 0.000000 0.000000 0.000000 0.000000 -63.590748 -37.505501 90.968613 -66.652176 22.583998 -2.533433 -15.829184 -11.772094 -34.083591 0.000000 0.000000 0.000000 69.868217 17.827972 71.708771 67.651321 -6.637262 23.345886 -47.382538 25.337641 -3.625127 -3.609575 3.561619 -7.383918 3.134944 -7.986161 4.287754 -1.230038 -9.492534 -7.480302 -13.181579 -18.414885 -2.890790 27.336958 -2.679842 -1.979304 -12.774998 -0.306344 5.721363 
-0.062594 48.632191 -3.095840 0.859768 11.058190 7.146852 4.906786 -7.746219 6.316930 0.000000 0.000000 0.000000 -27.382959 -5.391012 28.899559 0.000000 0.000000 0.000000 0.000000 0.000000 0.000000 -63.756443 -32.168438 90.444153 -56.362465 19.771318 -5.255476 -13.808510 -8.837564 -32.391960 0.000000 0.000000 0.000000 69.572861 14.448644 71.360954 56.759750 -9.235975 17.950764 -39.319725 24.098650 -10.322168 -4.135044 2.272979 -5.005565 4.032235 -6.765316 1.943580 -1.224240 -7.435165 -6.694639 -13.065319 -15.525956 -2.687028 26.221199 -2.582072 -2.784856 -12.767306 0.236866 3.633305 
0.099776 48.688183 -3.079040 1.398633 10.014325 6.001269 4.740837 -5.288325 6.492113 0.000000 0.000000 0.000000 -22.162558 -6.697535 20.556211 0.000000 0.000000 0.000000 0.000000 0.000000 0.000000 -63.971504 -26.830864 89.925041 -46.405006 16.569290 -7.367074 -11.714961 -5.963633 -30.615555 0.000000 0.000000 0.000000 69.312729 11.066640 71.043831 45.587383 -10.758885 12.129805 -31.209377 23.742220 -17.088436 -4.688753 0.994557 -2.628751 4.841597 -5.514534 -0.327048 -1.226770 -5.407935 -5.911175 -12.965808 -12.614123 -2.456944 25.126028 -2.480403 -3.600908 -12.748656 0.762144 1.546797 
0.553240 48.844936 -2.972672 1.480501 9.481561 5.297817 4.741635 -2.998776 6.405059 0.000000 0.000000 0.000000 -17.309584 -8.050367 13.652048 0.000000 0.000000 0.000000 0.000000 0.000000 0.000000 -64.407806 -22.295309 89.721611 -38.461197 13.646387 -8.461392 -10.122060 -3.702047 -29.119432 0.000000 0.000000 0.000000 68.761505 7.904685 70.558441 36.215347 -11.122500 7.151000 -24.606039 23.966902 -23.245890 -4.799202 -0.478428 -1.152605 5.790837 -4.609076 -1.715140 -1.347976 -3.651346 -4.957821 -12.763337 -10.409906 -2.101692 25.319305 -2.617151 -4.347340 -13.485117 0.611497 0.012263 
1.006732 49.001667 -2.866289 1.564448 8.946327 4.588389 4.744806 -0.718280 6.309076 0.000000 0.000000 0.000000 -12.320292 -8.808624 6.640283 0.000000 0.000000 0.000000 0.000000 0.000000 0.000000 -64.848526 -17.752726 89.487221 -30.662848 10.607202 -9.130226 -8.467992 -1.480704 -27.567421 0.000000 0.000000 0.000000 68.233559 4.744151 70.099686 26.840786 -10.695087 2.181448 -18.033754 24.834465 -29.356297 -4.926208 -1.951269 0.314975 6.708580 -3.681443 -3.085756 -1.486860 -1.913878 -3.975985 -12.532812 -8.189252 -1.748075 25.502254 -2.744006 -5.063223 -14.219955 0.433109 -1.546903 
